# xmcd CD database file
#
# Track frame offsets:
#	183
#	19198
#	34673
#	50275
#	60220
#	72288
#	91968
#	104883
#	128198
#	141070
#	153660
#	165428
#	177968
#	191828
#	202580
#	215673
#
# Disc length: 3184 seconds
#
# Revision: 0
# Processed by: cddbd v1.5PL3 Copyright (c) Steve Scherf et al.
# Submitted via: CDex 1.50
#
DISCID=dd0c6e10
DTITLE=sampler - blues legends
DYEAR=1900
DGENRE=Blues
TTITLE0=morganfield - got my mojo working
TTITLE1=oden - goin' down slow
TTITLE2=mcdaniel - cops and robbers
TTITLE3=hooker  dimples
TTITLE4=berry - johnny b. goode
TTITLE5=reed - baby what you want me to do
TTITLE6=reed - caress me baby
TTITLE7=baird - drinkin' in the blues
TTITLE8=dixon - hoochie goochie man
TTITLE9=dixon - spoonful
TTITLE10=mcdaniel - bo's blues
TTITLE11=hooker - hobo blues
TTITLE12=mcdaniel - wee wee hours
TTITLE13=hughes - steel away
TTITLE14=reed - oh john
TTITLE15=baird - chain gang blues
EXTD=
EXTT0=
EXTT1=
EXTT2=
EXTT3=
EXTT4=
EXTT5=
EXTT6=
EXTT7=
EXTT8=
EXTT9=
EXTT10=
EXTT11=
EXTT12=
EXTT13=
EXTT14=
EXTT15=
PLAYORDER=
